<svg width="24" height="24" viewBox="0 0 24 24" fill="none" xmlns="http://www.w3.org/2000/svg">
<g clip-path="url(#clip0_2_39)">
<path fill-rule="evenodd" clip-rule="evenodd" d="M4 12C4 7.58172 7.58172 4 12 4C16.4183 4 20 7.58172 20 12C20 16.4183 16.4183 20 12 20C7.58172 20 4 16.4183 4 12ZM17.1408 16.052C17.8791 15.1165 18.3676 13.9747 18.5055 12.7273H15.6225C15.5931 13.4994 15.517 14.2424 15.3999 14.9383C16.0295 15.2343 16.6141 15.6099 17.1408 16.052ZM16.1145 17.0909C15.7915 16.8295 15.4433 16.5983 15.0741 16.4015C14.9723 16.7602 14.858 17.0985 14.7323 17.4127C14.6393 17.6452 14.5385 17.8685 14.4298 18.0796C15.0425 17.8346 15.6095 17.4995 16.1145 17.0909ZM14.007 14.4358C14.0872 13.8984 14.1421 13.3258 14.1669 12.7273H9.83314C9.8579 13.3258 9.91278 13.8984 9.99303 14.4358C10.6344 14.27 11.307 14.1818 12 14.1818C12.693 14.1818 13.3656 14.27 14.007 14.4358ZM13.7139 15.8629C13.1677 15.7151 12.5931 15.6364 12 15.6364C11.4069 15.6364 10.8323 15.7151 10.2861 15.8629C10.3845 16.2289 10.496 16.567 10.6182 16.8725C10.8612 17.4798 11.1322 17.9225 11.3961 18.2015C11.6584 18.4789 11.8627 18.5455 12 18.5455C12.1373 18.5455 12.3416 18.4789 12.604 18.2015C12.8678 17.9225 13.1388 17.4798 13.3818 16.8725C13.504 16.567 13.6155 16.2289 13.7139 15.8629ZM8.6001 14.9384C8.48302 14.2424 8.40694 13.4994 8.37745 12.7273H5.49449C5.6324 13.9747 6.12087 15.1166 6.85921 16.052C7.38588 15.6099 7.97054 15.2344 8.6001 14.9384ZM7.88556 17.0909C8.20849 16.8295 8.5567 16.5983 8.92594 16.4015C9.02774 16.7602 9.14202 17.0985 9.2677 17.4127C9.36072 17.6452 9.46152 17.8685 9.57024 18.0796C8.95755 17.8346 8.39054 17.4995 7.88556 17.0909ZM15.6225 11.2727H18.5055C18.3676 10.0253 17.8791 8.88345 17.1408 7.948C16.6141 8.39008 16.0295 8.76566 15.3999 9.06166C15.517 9.75757 15.5931 10.5006 15.6225 11.2727ZM16.1145 6.90912C15.7915 7.1705 15.4433 7.40171 15.0741 7.59852C14.9723 7.23976 14.858 6.9015 14.7323 6.5873C14.6393 6.35476 14.5385 6.13151 14.4298 5.92036C15.0425 6.16545 15.6095 6.50048 16.1145 6.90912ZM12 8.36363C12.5931 8.36363 13.1677 8.28485 13.7139 8.13712C13.6155 7.77115 13.504 7.43303 13.3818 7.12751C13.1388 6.52016 12.8678 6.07747 12.604 5.79851C12.3416 5.52109 12.1373 5.45455 12 5.45455C11.8627 5.45455 11.6584 5.52109 11.3961 5.79851C11.1322 6.07747 10.8612 6.52016 10.6182 7.12751C10.496 7.43303 10.3845 7.77114 10.2861 8.13711C10.8323 8.28485 11.4069 8.36363 12 8.36363ZM12 9.81818C11.307 9.81818 10.6344 9.72996 9.99303 9.5642C9.91278 10.1016 9.8579 10.6742 9.83314 11.2727H14.1669C14.1421 10.6742 14.0872 10.1016 14.007 9.5642C13.3656 9.72996 12.693 9.81818 12 9.81818ZM9.2677 6.5873C9.14202 6.9015 9.02774 7.23975 8.92595 7.5985C8.5567 7.40169 8.2085 7.17048 7.88556 6.9091C8.39054 6.50047 8.95755 6.16544 9.57024 5.92036C9.46152 6.13151 9.36072 6.35476 9.2677 6.5873ZM8.6001 9.06165C7.97054 8.76565 7.38588 8.39007 6.85922 7.94798C6.12087 8.88343 5.6324 10.0253 5.49449 11.2727H8.37745C8.40694 10.5006 8.48302 9.75756 8.6001 9.06165Z" fill="#CCCCCC"/>
</g>
<defs>
<clipPath id="clip0_2_39">
<rect width="24" height="24" fill="white"/>
</clipPath>
</defs>
</svg>
