<svg width="24" height="24" viewBox="0 0 24 24" fill="none" xmlns="http://www.w3.org/2000/svg">
<g clip-path="url(#clip0_2_52)">
<path d="M4.00157 19.6763C4.00157 19.855 4.15077 20 4.33483 20L19.6641 20C19.8482 20 19.9974 19.8551 19.9974 19.6763V19.2897C20.005 19.1732 20.0206 18.5918 19.6374 17.949C19.3957 17.5437 19.045 17.1936 18.5949 16.9083C18.0503 16.5633 17.3577 16.3133 16.5199 16.1627C16.5137 16.1619 15.8925 16.0796 15.256 15.9171C14.1478 15.634 14.0509 15.3835 14.0503 15.381C14.0437 15.3563 14.0343 15.3325 14.0222 15.3101C14.0132 15.2634 13.9908 15.0875 14.0336 14.6163C14.1423 13.4194 14.7843 12.712 15.3002 12.1437C15.4629 11.9644 15.6165 11.7951 15.7349 11.6291C16.2453 10.9129 16.2927 10.0985 16.2949 10.048C16.2949 9.94573 16.2831 9.86164 16.258 9.7837C16.2079 9.62775 16.1136 9.53057 16.0448 9.45962L16.0443 9.45912C16.0269 9.44126 16.0106 9.42434 15.9972 9.4088C15.9921 9.40286 15.9785 9.38716 15.9909 9.30653C16.0362 9.00973 16.0634 8.76122 16.0764 8.52446C16.0997 8.10265 16.1178 7.47183 16.009 6.85789C15.9956 6.75305 15.9725 6.64232 15.9366 6.5104C15.8216 6.08764 15.637 5.72619 15.3804 5.42789C15.3362 5.37988 14.2634 4.2496 11.149 4.01769C10.7183 3.98562 10.2926 4.0029 9.87351 4.02432C9.7725 4.02931 9.63419 4.03616 9.50475 4.0697C9.1832 4.153 9.09739 4.35681 9.07486 4.47088C9.03751 4.65982 9.10316 4.8068 9.14657 4.90408V4.90408V4.9041C9.15288 4.9182 9.16067 4.93563 9.14707 4.98104C9.07478 5.093 8.96105 5.19394 8.84509 5.28957C8.81158 5.31805 8.03061 5.99144 7.98766 6.87112C7.87187 7.54013 7.88063 8.58248 8.01756 9.30291C8.02551 9.34269 8.03726 9.4016 8.01819 9.44139C7.87095 9.57335 7.70404 9.7229 7.70446 10.0642C7.70623 10.0985 7.7536 10.9129 8.26408 11.6291C8.38231 11.795 8.53583 11.9642 8.6984 12.1433L8.69878 12.1437V12.1437C9.21465 12.712 9.85663 13.4194 9.96539 14.6162C10.0082 15.0875 9.98577 15.2634 9.97671 15.3101C9.96463 15.3324 9.9552 15.3562 9.94871 15.381C9.94804 15.3834 9.85153 15.6331 8.74829 15.9156C8.11183 16.0786 7.48526 16.1619 7.46657 16.1646C6.65238 16.302 5.96395 16.5458 5.42043 16.8891C4.97185 17.1724 4.62044 17.5232 4.37595 17.9317C3.98534 18.5844 3.9959 19.1788 4.00157 19.2873V19.6763Z" fill="#CCCCCC"/>
</g>
<defs>
<clipPath id="clip0_2_52">
<rect width="24" height="24" fill="white"/>
</clipPath>
</defs>
</svg>

